# xmcd
#
# Track frame offsets: 
#        150
#        19972
#        34137
#        52635
#        69937
#        85912
#        102225
#        123412
#        141537
#        156265
#
# Disc length: 2310 seconds
#
# Revision: 5
# Processed by: cddbd v1.5.2PL0 Copyright (c) Steve Scherf et al.
# Submitted via: ExactAudioCopy v0.95b4
#
DISCID=8109040a
DTITLE=Ray Charles - Wish You Were Here Tonight
DYEAR=1983
DGENRE=Blues
TTITLE0=3/4 Time
TTITLE1=I Wish You Were Here Tonight
TTITLE2=Ain't Your Memory Got No Pride At All
TTITLE3=Born To Love Me
TTITLE4=I Don't Want No Stranger Sleepin' In My Bed
TTITLE5=Let Your Love Flow
TTITLE6=You Feel Good All Over
TTITLE7=String Bean
TTITLE8=You've Got The Longest Leaving Act In Town
TTITLE9=Shakin' Your Head
EXTD=ID3G:   0
EXTT0=
EXTT1=
EXTT2=
EXTT3=
EXTT4=
EXTT5=
EXTT6=
EXTT7=
EXTT8=
EXTT9=
PLAYORDER=
